<svg width="36" height="36" viewBox="0 0 36 36" fill="none" xmlns="http://www.w3.org/2000/svg" role="img" aria-label="Eltis Services">
  <rect x="1" y="1" width="34" height="34" rx="9" fill="#0A1020"/>
  <rect x="1.5" y="1.5" width="33" height="33" rx="8.5" stroke="url(#eg)" stroke-opacity="0.5"/>
  <path d="M9 8h11a2 2 0 0 1 2 2v16a2 2 0 0 1-2 2H9a2 2 0 0 1-2-2V10a2 2 0 0 1 2-2Z" stroke="#F6A521" stroke-width="1.7"/>
  <path d="M12.5 6.5h4V8h-4z" fill="#F6A521"/>
  <path d="M15.5 12l-4 7h3l-1 5 5-8h-3l1.5-4z" fill="#F6A521"/>
  <path d="M25 14v8" stroke="#4FC3E8" stroke-width="1.7" stroke-linecap="round"/>
  <path d="M28 16v4" stroke="#4FC3E8" stroke-width="1.7" stroke-linecap="round"/>
  <defs><linearGradient id="eg" x1="0" y1="0" x2="36" y2="36" gradientUnits="userSpaceOnUse"><stop stop-color="#F6A521"/><stop offset="1" stop-color="#4FC3E8"/></linearGradient></defs>
</svg>
